# xmcd
#
# Track frame offsets: 
#        150
#        24462
#        52930
#        72312
#        91215
#        123917
#        142207
#        169167
#        194075
#
# Disc length: 3152 seconds
#
# Revision: 1
# Processed by: cddbd v1.4PL0 Copyright (c) Steve Scherf et al.
# Submitted via: ExactAudioCopy v0.90b4
#
DISCID=800c4e09
DTITLE=Tim Leffman - Shaking Hands
DYEAR=1998
DGENRE=Blues/Folk
TTITLE0=Banyan Tree
TTITLE1=Stars
TTITLE2=New Morning
TTITLE3=In My Tree
TTITLE4=Wordless
TTITLE5=Hello Johnathon
TTITLE6=Mama
TTITLE7=Kilgary
TTITLE8=Stars Reprise
EXTD=
EXTT0=
EXTT1=
EXTT2=
EXTT3=
EXTT4=
EXTT5=
EXTT6=
EXTT7=
EXTT8=
PLAYORDER=
